<?xml version="1.0" encoding="UTF-8" standalone="no"?><!-- Generator: Gravit.io --><svg xmlns="http://www.w3.org/2000/svg" xmlns:xlink="http://www.w3.org/1999/xlink" style="isolation:isolate" viewBox="10 180.519 375 160.481" width="375pt" height="160.481pt"><path d=" M 80.262 267.624 L 85.39 282.682 C 88.164 290.825 90.641 297.335 90.964 297.335 C 90.969 297.335 90.974 297.333 90.978 297.329 C 91.333 297.016 101.369 267.871 101.369 267.871 L 120.819 267.871 L 97.353 336.247 L 83.834 336.247 C 83.834 336.247 69.404 294.57 69.464 294.413 L 54.401 335.722 L 41.018 335.722 L 17.847 267.625 L 37.203 267.637 C 37.203 267.637 47.806 297.691 47.947 297.691 L 47.948 297.69 L 58.528 267.624 L 80.262 267.624 Z  M 11.239 262.888 L 13.368 269.147 L 36.539 337.244 L 37.63 340.452 L 57.712 340.452 L 58.846 337.342 L 69.305 308.659 C 70.206 311.282 71.18 314.108 72.154 316.931 C 74.553 323.886 76.957 330.84 79.363 337.793 L 80.465 340.977 L 100.731 340.977 L 101.827 337.783 L 125.294 269.408 L 127.444 263.139 L 97.994 263.139 L 96.895 266.33 C 94.878 272.185 92.849 278.036 90.806 283.88 C 90.49 282.972 90.177 282.064 89.867 281.154 L 84.74 266.097 L 83.649 262.891 L 55.177 262.891 L 54.065 266.053 L 47.883 283.62 C 45.803 277.77 43.73 271.917 41.664 266.061 L 40.551 262.907 L 37.205 262.904 L 17.85 262.892 L 11.239 262.888 L 11.239 262.888 Z  M 379.822 267.359 L 379.778 285.281 C 379.778 285.281 360.473 285.217 350.659 285.217 C 347.394 285.217 345.178 285.226 345.074 285.244 C 343.384 285.552 342.306 289.149 342.785 290.727 C 343.021 291.525 344.792 294.133 346.706 296.529 C 348.616 298.925 351.757 302.846 353.672 305.239 C 358.591 311.378 359.266 312.59 359.722 316.116 C 360.462 321.842 357.754 328.038 352.727 332.125 C 347.688 336.223 347.91 336.252 310.513 336.252 L 308.87 336.252 C 286.125 336.245 274.096 336.057 272.345 335.667 C 269.235 334.963 264.277 330.918 251.179 318.352 C 246.467 313.835 242.124 309.881 241.901 309.88 C 241.895 309.88 241.893 309.884 241.893 309.891 L 241.738 336.254 L 220.509 336.16 L 220.378 268.163 L 267.725 268.163 C 281.995 268.678 291.652 282.895 289.73 291.961 C 289.294 294.019 288.182 297 287.258 298.585 C 285.359 301.837 280.527 306.012 276.606 307.804 C 275.158 308.459 273.975 309.223 273.975 309.494 C 273.975 310.506 278.742 315.2 280.528 315.946 C 282.053 316.584 286.495 316.726 306.082 316.726 L 312.354 316.727 C 332.043 316.727 331.052 316.585 332.573 313.332 C 333.639 311.068 332.829 309.713 325.336 301.273 C 315.844 291.828 316.837 287.304 316.773 283.963 C 316.637 279.959 319.79 267.364 336.177 267.364 L 379.822 267.359 Z  M 252.633 298.773 C 261.723 298.773 263.568 298.632 265.502 297.792 C 272.031 294.953 272.381 286.568 266.118 282.847 C 264.746 282.03 262.983 281.896 253.131 281.842 L 241.729 281.782 C 241.824 281.87 241.694 298.086 241.694 298.086 C 241.694 298.086 244.549 298.773 252.633 298.773 Z  M 384.565 262.628 L 336.178 262.628 C 326.696 262.628 321.088 266.37 318.055 269.51 C 313.116 274.615 311.956 281.044 312.045 284.075 C 312.05 284.327 312.047 284.587 312.043 284.856 C 312.001 289.782 312.725 295.358 321.896 304.518 C 323.707 306.559 326.739 309.981 327.888 311.682 C 325.381 311.99 319.028 311.99 312.354 311.99 L 309.521 311.99 L 306.082 311.988 C 294.311 311.988 284.385 311.954 282.352 311.553 C 282.067 311.369 281.668 311.048 281.23 310.667 C 285.297 308.164 289.409 304.281 291.345 300.962 C 292.52 298.944 293.816 295.496 294.36 292.939 C 295.567 287.247 293.577 280.38 289.038 274.566 C 283.741 267.782 276.035 263.723 267.898 263.43 L 267.812 263.427 L 215.638 263.427 L 215.648 268.168 L 215.779 336.165 L 215.789 340.866 L 220.489 340.886 L 241.719 340.979 L 246.441 341 L 246.47 336.277 L 246.561 320.484 C 246.994 320.894 247.442 321.322 247.904 321.763 C 262.232 335.507 267.039 339.316 271.3 340.279 C 272.471 340.539 274.407 340.972 308.867 340.981 L 310.509 340.981 C 329.167 340.981 338.531 340.981 344.1 340.444 C 350.48 339.827 352.533 338.38 355.609 335.874 L 355.712 335.79 C 362.03 330.653 365.365 322.88 364.414 315.506 C 363.794 310.71 362.525 308.718 357.364 302.278 L 355.83 300.362 C 354.019 298.101 352.21 295.84 350.402 293.576 C 349.228 292.107 348.304 290.803 347.75 289.948 C 348.48 289.946 349.429 289.945 350.659 289.945 C 360.354 289.945 379.57 290.008 379.763 290.009 L 384.498 290.024 L 384.51 285.289 L 384.555 267.366 L 384.565 262.628 L 384.565 262.628 Z  M 246.454 293.869 L 246.476 289.991 C 246.482 288.808 246.488 287.623 246.489 286.537 L 253.105 286.572 C 256.907 286.592 262.629 286.623 263.744 286.94 C 265.167 287.803 265.962 289.141 265.875 290.524 C 265.828 291.272 265.472 292.646 263.615 293.452 C 262.58 293.902 260.93 294.042 252.634 294.042 C 250.002 294.042 247.971 293.966 246.454 293.869 L 246.454 293.869 Z  M 177.362 267.08 L 201.189 335.634 L 181.773 335.722 L 178.55 325.426 L 143.836 325.147 L 140.772 335.456 L 121.552 335.254 L 145.078 267.109 L 177.362 267.08 Z  M 161.749 277.131 C 161.7 277.328 158.707 285.54 155.703 293.751 C 152.676 302.031 149.637 310.31 149.596 310.374 L 149.596 310.374 C 149.676 310.351 160.428 310.327 167.319 310.327 C 170.544 310.327 172.922 310.333 172.966 310.343 L 172.967 310.347 L 172.967 310.345 L 172.966 310.343 C 172.846 310.032 161.784 277.531 161.749 277.131 L 161.749 277.127 L 161.749 277.131 Z  M 180.725 262.346 L 177.359 262.349 L 145.075 262.379 L 141.707 262.383 L 140.607 265.569 L 117.082 333.714 L 114.939 339.919 L 121.505 339.987 L 140.725 340.188 L 144.293 340.226 L 145.309 336.806 L 147.359 329.91 L 175.068 330.132 L 177.261 337.139 L 178.305 340.474 L 181.798 340.459 L 201.213 340.37 L 207.834 340.339 L 205.659 334.086 L 181.832 265.533 L 180.725 262.346 L 180.725 262.346 Z  M 156.406 305.602 C 157.302 303.16 158.508 299.86 160.148 295.378 L 161.563 291.507 L 162.845 295.29 C 163.228 296.417 164.907 301.364 166.346 305.597 C 162.064 305.596 158.841 305.597 156.406 305.602 Z  M 185.393 185.257 L 185.393 202.171 L 151.518 202.171 L 151.518 253.9 L 131.322 253.9 L 131.322 202.13 L 91.783 202.241 C 87.016 202.241 86.377 206.038 86.377 207.493 C 86.377 209.279 87.542 211.064 93.941 219.166 C 98.092 224.429 101.907 229.681 102.41 230.829 C 105.154 237.145 101.605 246.985 95.142 250.983 C 90.535 253.829 91.322 253.9 57.111 253.9 L 14.731 253.9 L 14.731 234.898 L 72.628 234.898 L 74.337 233.71 C 75.49 232.906 76.158 231.8 76.412 230.286 C 76.767 228.109 76.584 227.826 69.434 219.771 C 60.983 210.249 60.091 208.511 60.528 202.433 C 61.024 195.496 67.21 185.418 78.021 185.418 L 185.393 185.257 Z  M 190.124 180.519 L 185.385 180.526 L 78.014 180.686 C 71.829 180.686 66.085 183.359 61.844 188.21 C 58.406 192.144 56.149 197.335 55.809 202.095 C 55.233 210.085 57.072 212.973 65.896 222.913 C 68.456 225.797 70.891 228.541 71.703 229.705 C 71.695 229.738 71.684 229.768 71.672 229.799 C 71.662 229.807 71.649 229.817 71.63 229.83 L 71.144 230.168 L 10 230.168 L 10 258.631 L 57.111 258.631 C 73.979 258.631 82.304 258.616 87.209 258.256 C 92.822 257.845 94.612 256.883 97.295 255.216 L 97.629 255.008 C 106.063 249.792 110.41 237.368 106.75 228.943 C 105.62 226.367 98.468 217.266 97.656 216.237 C 95.411 213.394 91.706 208.703 91.119 207.345 C 91.133 207.232 91.161 207.113 91.191 207.031 C 91.288 207.006 91.475 206.973 91.782 206.973 L 126.591 206.874 L 126.591 258.631 L 156.249 258.631 L 156.249 206.901 L 190.124 206.901 L 190.124 180.519 L 190.124 180.519 Z  M 240.428 185.806 L 264.189 254.537 L 244.809 254.43 L 241.663 244.135 L 207.104 243.981 L 204.016 253.899 L 184.282 253.899 L 207.783 185.806 L 240.428 185.806 M 212.744 229.345 L 236.282 229.315 L 236.282 229.316 C 236.363 229.316 224.844 195.488 224.767 195.464 C 224.683 195.461 212.479 229.345 212.744 229.345 Z  M 243.798 181.075 L 204.412 181.075 L 203.313 184.263 L 179.811 252.357 L 177.645 258.63 L 207.501 258.63 L 208.536 255.305 L 210.583 248.728 L 238.16 248.851 L 240.288 255.813 L 241.307 259.142 L 244.788 259.162 L 264.169 259.269 L 270.85 259.305 L 268.667 252.992 L 244.906 184.26 L 243.798 181.075 Z  M 219.317 224.606 C 221.076 219.61 222.854 214.62 224.647 209.637 C 226.347 214.62 228.04 219.605 229.726 224.593 L 219.317 224.606 L 219.317 224.606 Z  M 307.164 185.806 C 322.494 185.806 333.132 186.025 335.178 186.38 C 339.909 187.203 344.184 189.727 347.389 193.608 C 350.742 197.664 351.512 199.605 351.949 205.163 C 352.577 213.012 348.844 219.783 341.481 224.176 C 339.334 225.46 337.13 226.708 336.579 226.955 C 335.733 227.339 335.847 227.707 337.36 229.481 C 338.334 230.623 340.027 232.249 341.115 233.094 L 343.102 234.637 L 379.815 235.163 L 380.175 253.899 L 357.666 253.899 C 340.257 253.899 334.686 253.739 333.052 253.19 C 330.611 252.362 324.734 247.383 312.786 236.016 L 304.259 227.902 L 304.348 253.899 L 282.44 253.899 L 282.44 185.806 L 307.164 185.806 Z  M 303.936 216.422 L 315.569 216.422 C 326.889 216.422 327.243 216.386 328.858 215.175 C 331.745 213.01 332.766 210.78 332.46 207.356 C 332.148 203.825 330.786 201.987 327.374 200.508 C 325.451 199.668 323.6 199.533 314.528 199.533 L 303.936 199.533 L 303.936 216.422 Z  M 307.164 181.075 L 277.714 181.075 L 277.714 258.63 L 309.099 258.63 L 309.082 253.883 L 309.03 238.97 L 309.527 239.443 C 324.303 253.501 328.662 256.696 331.536 257.67 C 333.744 258.415 337.44 258.63 357.669 258.63 L 385 258.63 L 384.908 253.809 L 384.548 235.073 L 384.461 230.5 L 379.887 230.434 L 344.758 229.931 L 344.022 229.358 C 343.788 229.175 343.503 228.934 343.201 228.66 L 343.914 228.236 C 352.787 222.942 357.437 214.393 356.669 204.786 C 356.159 198.305 355.002 195.385 351.038 190.593 C 347.145 185.88 341.801 182.728 335.99 181.719 C 332.76 181.159 316.544 181.075 307.164 181.075 L 307.164 181.075 Z  M 308.668 204.263 L 314.528 204.263 C 322.823 204.263 324.467 204.401 325.48 204.843 C 327.402 205.675 327.597 206.08 327.747 207.774 C 327.899 209.459 327.69 210.136 326.019 211.388 L 325.887 211.487 C 324.784 211.691 320.691 211.691 315.569 211.691 L 308.668 211.691 L 308.668 204.263 L 308.668 204.263 Z " fill="rgb(255,197,0)"/></svg>